<svg xmlns="http://www.w3.org/2000/svg" width="462" height="146"><path fill="#1B689B" d="M53.92 143.11 51.86 146H48.5l-.31-11.5-.31-11.5H30c-9.83 0-19.09-.46-20.58-1.03s-4.21-2.68-6.06-4.69L0 113.61V0h121v55.75c0 51.1-.15 56.04-1.75 59.18-3.44 6.75-5.59 7.5-23.07 8.13-8.63.31-16.58 1.07-17.68 1.68-1.1.62-4.15 2.1-6.79 3.3-5 2.27-14.26 10.12-17.79 15.07M52.5 120.5l.58 17.7 4.71-4.38c12.37-11.5 18.4-13.82 36.05-13.83 13.53 0 18.28-1.05 21.11-4.66 2.01-2.55 2.05-3.71 2.05-56.96V4H4v53.45c0 36.31.35 54.22 1.09 55.84.59 1.31 2.5 3.24 4.25 4.29 2.75 1.67 5.78 1.99 23.16 2.42ZM92 53.17c0 1.97-3.99.37-10.5-4.2-7.63-5.36-8.65-5.7-10.48-3.49-4.19 5.05-13.76 5.93-20.64 1.9C44.15 43.72 41 38.79 41 32.67c0-12.37 10.85-20.59 23.25-17.61 10.68 2.56 16.23 13.7 12.15 24.34-.28.73 1.97 2.87 5.31 5.06C88.18 48.7 92 51.93 92 53.17M34.8 105.8c-1.72 1.72-9.29 1.51-10.79-.29-1.42-1.7-.56-2.22 4.49-2.72l3-.29.56-24.41 12.44-.59 1-21 13.36-.28c9-.19 13.82.1 14.75.87.84.69 1.39 3.08 1.39 5.99v4.83l14.5.59.55 34.5 3.22.02c1.78 0 3.81.38 4.53.83 2.45 1.56-1.33 3.29-6.47 2.96l-4.83-.31-1-34h-16l-.29 16c-.32 18.03-.52 19.32-2.72 17.49-1.21-1-1.49-4.38-1.49-18.03 0-9.24.27-17.51.61-18.38.33-.87 1.46-1.58 2.5-1.58 1.54 0 1.89-.74 1.89-4v-4H48.92l.29 8.75c.27 8.24.42 8.77 2.57 9.07 2.26.32 2.27.42 2 14.5-.23 11.82-.53 14.18-1.78 14.18-1.24 0-1.55-2.15-1.78-12.25L49.94 82H36v11.3c0 7.46-.41 11.71-1.2 12.5M160 72.05l-.5 7.45-7.5.62V49h3.49c3.26 0 3.82.51 8.63 8 2.83 4.4 5.49 8 5.92 8 .42 0 3.08-3.6 5.9-8 5.01-7.81 5.23-8 9.12-8h3.99l-.55 30.5h-8l-1-14.99-3.8 5.75c-2.27 3.41-4.53 5.74-5.59 5.74-1.04 0-3.4-2.37-5.69-5.7l-3.92-5.7Zm120.81-33.31c-.3 4.66-.38 4.77-3.85 5.06-1.94.16-3.85-.03-4.25-.42-.39-.39-.71-7.61-.71-16.05V12h4c2.2 0 4 .47 4 1.04 0 .71.6.71 1.93 0 2.6-1.39 9.68-1.32 12.39.12 6.7 3.58 7.2 14.57.9 20.17-2.57 2.29-9.23 3.27-12.02 1.78-1.97-1.06-2.11-.85-2.39 3.63m-227.36 6.3c4 1.62 10.13 1.04 13.6-1.29 7.94-5.35 9.03-14.87 2.46-21.44-3.04-3.04-3.82-3.31-9.54-3.31C49.66 19 45 23.39 45 33.11c0 2.87.8 4.73 3.2 7.46 1.75 2 4.12 4.01 5.25 4.47M159.8 29.75l-.3 5.75-3.75.31-3.75.31V5h7.9l.3 5.75c.25 4.88.6 5.79 2.3 6.01 1.48.19 2.99-1.31 5.81-5.75 3.73-5.87 3.92-6.01 8.25-6.01 2.44 0 4.44.17 4.44.37s-2.02 3.38-4.49 7.06c-2.29 3.41-3.55 5.21-3.63 7.05-.09 2.14 1.4 4.36 4.72 9.27.13.19.26.39.4.59 1.65 2.45 3 4.95 3 5.56 0 .64-1.87 1.1-4.44 1.1-4.35 0-4.51-.12-8.14-6-2.8-4.53-4.27-6-6.01-6-2.11 0-2.34.5-2.61 5.75m55.18 47.76c-11.46 7.24-25.36-3.8-19.89-15.8 2.45-5.39 13.06-8.11 19.41-4.98 4.54 2.25 6.45 5.22 6.48 10.09.03 5.53-1.15 7.63-6 10.69m111.68-45.84c-2.92 3.19-3.99 3.68-8.75 3.97-5.53.34-6.94-.02-10.53-2.64-6.35-4.63-5.68-16.72 1.09-19.81 1.44-.65 5.35-1.19 8.68-1.19 5.55 0 6.33.28 9.45 3.4 2.88 2.88 3.4 4.1 3.4 8.01 0 3.84-.56 5.23-3.34 8.26m-122.57 2.05c-4.35 2.93-10.4 2.99-15.09.16-5.54-3.36-7.54-8.33-5.83-14.53 1.48-5.36 5.78-7.53 14.09-7.12 8.42.42 11.71 3.05 12.39 9.9.52 5.3-1.03 8.53-5.56 11.59m98.44 44.83c-1.98.83-6.68 1.45-11 1.45H284V56h8.43c12.54 0 16.04 1.98 13.93 7.87-.69 1.92-.54 3.35.56 5.28 2.04 3.6.23 7.47-4.39 9.4M222.81 31.2c-.3 4.13-.45 4.31-3.85 4.6-1.94.16-3.85-.03-4.25-.42-.39-.39-.71-5.81-.71-12.05V12h8.89l.3 4.25c.31 4.24.32 4.25 4.31 4.25s4-.01 4.31-4.25c.3-4.23.32-4.25 4.25-4.25H240v24.12l-3.75-.31c-3.56-.29-3.78-.51-4.25-4.31-.49-3.89-.62-4.01-4.69-4.3l-4.19-.31Zm39 44.05c-.3 4.1-.44 4.26-3.94 4.55-3.41.29-3.66.11-4.26-3.08-.35-1.87-.58-7.29-.52-12.06l.12-8.66h8.68l.3 4.17c.17 2.3.76 4.32 1.31 4.5s2.35-1.69 4-4.15c2.76-4.12 3.34-4.48 7.25-4.5 2.34-.01 4.25.21 4.25.49s-1.35 2.37-3 4.65-3 4.86-3 5.74c.01.88 1.77 3.92 3.92 6.76 2.16 2.84 3.66 5.43 3.33 5.75-.32.33-2.51.59-4.87.59-3.95 0-4.52-.35-7.38-4.5-3.96-5.75-5.79-5.83-6.19-.25m122.07-40.36c-3.44 1.2-17.12 1.53-18.21.44-.37-.36-.67-5.76-.67-12V12h4.5c4.44 0 4.5.04 4.5 3.37v3.37l6.06.69c6.52.73 9.94 3.01 9.94 6.62s-2.83 7.69-6.12 8.84m-43.48-.44c-.85.85-3.09 1.55-4.97 1.55-3.2 0-3.43-.21-3.43-3.26 0-2.18.66-3.67 2-4.51 1.5-.94 2-2.33 2-5.61 0-2.41.28-5.78.62-7.5l.63-3.12h21.81l-.56 23.5-3.75.31-3.75.31V18.87l-3.25.32c-2.79.27-3.29.73-3.56 3.31-.53 5.15-2.18 10.35-3.79 11.95m-7.72 42.95c-2.21 1.64-4.62 2.17-11 2.44-4.5.19-8.52 0-8.93-.42-.41-.41-.75-5.85-.75-12.09V56h4.5c4.44 0 4.5.04 4.5 3.38 0 2.97.37 3.44 3.12 4 1.72.34 4.39.62 5.93.62 4.14 0 6.11 2.49 5.75 7.27-.23 3.06-.98 4.54-3.12 6.13m-87.65.35c-4.31 2.92-9.48 2.88-14.42-.11-4.65-2.82-6.53-5.88-6.57-10.76-.09-9.11 11.92-14.5 21.21-9.52 4.5 2.41 4.69 3.66.86 5.91-2.54 1.51-3.03 1.53-4.12.22-1.34-1.62-5.69-1.96-7.8-.63-1.71 1.09-1.85 6.64-.22 8.61 1.52 1.83 5.32 1.99 7.97.34 1.48-.93 2.51-.93 4.56.01 3.25 1.48 2.87 2.99-1.47 5.93m15.76-50.44-.29 8.19-3.54.3c-1.94.16-3.85-.03-4.25-.42-.39-.39-.71-4.21-.71-8.49v-7.77l-3.75-.31c-3.42-.28-3.78-.59-4.06-3.56l-.32-3.25h25.26l-.32 3.25c-.28 2.96-.64 3.28-4.02 3.56l-3.71.31Zm100.58 85.62c-3.56 2.79-7.58 2.61-11.29-.52-8.26-6.94 2.78-18.03 11.29-11.34 3.72 2.93 3.72 8.93 0 11.86m19.73.19c-1.64 1.32-3.92 1.88-7.75 1.88h-5.43l.29-7.75.29-7.75 4.72-.3c6.25-.41 9.14 1.15 8.48 4.57-.27 1.43.01 3.69.62 5.03.95 2.09.78 2.7-1.22 4.32m-93.18-.71c-5.96 5.02-13.92 1.93-13.92-5.41 0-3.12.56-4.26 2.9-5.93 1.6-1.14 4.04-2.07 5.43-2.07 3.72 0 8.67 4.56 8.67 8 0 1.92-.98 3.65-3.08 5.41m58.86-44.54-.28 11.63-3.04.3c-1.67.16-3.35-.03-3.75-.42-.95-.95-.92-23.14.04-23.7.41-.24 2.23-.22 4.03.06l3.28.5ZM246.5 114c-6.53 2.48-12.83-.96-12.83-7 0-4.13 4.08-8 8.43-8 3.49 0 7.9 3.88 7.9 6.95 0 1.84-.62 2.05-6 2.05-3.3 0-6 .39-6 .88 0 2.02 3.09 3.33 6.41 2.7 4.21-.79 5.77 1.02 2.09 2.42m153.31-4.5-.31 4.86-5.09.3c-2.97.17-5.72-.22-6.61-.93-4.25-3.43-1.73-7.73 4.53-7.73 2.6 0 3.67-.44 3.67-1.5 0-1.11-1.17-1.5-4.5-1.5-3.31 0-4.5-.39-4.5-1.48 0-1.92 4.07-2.92 8.5-2.09 4.02.76 4.79 2.56 4.31 10.07m62.19-6.35V108h-6c-3.3 0-6 .39-6 .88 0 1.82 2.95 3.22 6.17 2.92 4.12-.37 5.26 1.33 1.72 2.57-8.57 3.01-15.66-6.69-9.44-12.92 3.04-3.03 7.35-3.18 10.92-.38zm-278.93 10.81c-4.56 2.44-11.56-.34-12.58-5-1.33-6.05 3.06-10.62 9.25-9.61 3.87.62 6.18 3 6.23 6.4.03 2.09-.41 2.25-5.97 2.25-6.09 0-7.21.75-4.49 3 .97.82 2.9 1.03 5.5.62 4.26-.69 5.37.57 2.06 2.34m250.28-4.01c-6.43 7.16-7.35 6.79-7.35-2.95 0-7.33.17-8 2-8 1.71 0 2.01.68 2.04 4.75l.04 4.75 4.37-4.75c6.47-7.03 7.7-6.52 7.34 3-.23 6.09-.61 7.75-1.79 7.75-1.08 0-1.59-1.34-1.81-4.8l-.3-4.79Zm-106.82 2.61c-1.95 1.95-3.46 2.44-7.53 2.44h-5.08l.29-7.74c.24-6.3.6-7.8 1.97-8.06 1.19-.23 1.77.49 2 2.49.29 2.51.79 2.86 4.71 3.31 3.43.39 4.58 1.01 5.24 2.81.66 1.81.32 2.83-1.6 4.75m-162.16.37c-3.7 2.91-12.57 2.59-13.76-.49-.45-1.2.36-1.34 4.67-.84 4.53.53 5.48.33 7.18-1.55 1.67-1.85 1.74-2.31.5-3.1-.8-.5-3.15-.93-5.21-.93-2.59-.02-3.75-.47-3.75-1.46 0-.94 1.3-1.55 3.75-1.75 3.01-.25 3.81-.75 4.07-2.56.33-2.35 0-2.48-6.54-2.66-1.78-.05-3.35-.54-3.5-1.09-.39-1.4 9.73-1.83 12.19-.52 2.21 1.19 2.71 4.94.89 6.76-.84.84-.72 1.55.5 2.77 2.38 2.37 2.02 5.05-.99 7.42m54.18-1.4c-.98 2.36-2.1 3.47-3.5 3.47-2.37 0-2.78-2.51-.55-3.36 1.02-.39 1.5-1.99 1.5-5.03 0-7.23.38-7.61 7.61-7.61H230l-.01 5.75c-.02 7.13-.81 10.25-2.61 10.25-1.02 0-1.38-1.56-1.38-6v-6h-3c-2.54 0-3 .39-3 2.53 0 1.39-.65 4.09-1.45 6m39.25-2.86c-.18 3.42-.8 5.84-1.55 6.08-1.85.61-2.39-1.71-2.05-8.86l.3-6.39 7.79-.29 7.8-.3-.3 7.79c-.24 6.47-.58 7.83-2.04 8.11-1.51.29-1.75-.49-1.75-5.74V103h-7.9ZM193 110c0 2.8-.46 5-1.04 5-.66 0-.94-2.85-.75-7.74.24-6.4.59-7.8 2.02-8.07 1.21-.23 2.39 1.04 3.95 4.24 1.22 2.51 2.57 4.57 3.01 4.57.43 0 1.92-1.8 3.31-4 1.59-2.53 3.27-4 4.56-4 1.88 0 2.01.53 1.73 7.17-.19 4.63-.73 7.32-1.54 7.58-.88.29-1.25-.95-1.25-4.17 0-2.52-.34-4.57-.75-4.57-.41.01-1.77 1.58-3.01 3.5s-2.62 3.49-3.07 3.49c-.44 0-1.81-1.8-3.05-4s-2.67-4-3.18-4c-.52 0-.94 2.25-.94 5m215.82 1.74c-.19 1.65-1.01 2.87-2.07 3.07-1.55.3-1.75-.59-1.75-7.81s.2-8.11 1.75-7.82c1.16.22 1.86 1.45 2.07 3.63.3 3.15.49 3.29 4 3 3.35-.28 3.71-.6 3.99-3.56.52-5.35 3.16-4.17 3.36 1.5.35 10.14.27 10.73-1.47 11.07-1.3.25-1.7-.39-1.7-2.75 0-2.91-.21-3.07-3.93-3.07-3.55 0-3.97.27-4.25 2.74m-111.94 1.91c-1.42 1.7-4.88 1.77-4.88.09 0-.69.9-1.82 2-2.51 1.61-1 2-2.33 2-6.74V99h13.08l-.29 7.75c-.23 6.09-.61 7.75-1.79 7.75-1.12 0-1.58-1.44-1.8-5.75-.29-5.57-.39-5.75-3.11-5.75-2.59 0-2.87.37-3.46 4.65-.35 2.56-1.14 5.26-1.75 6m46.11-1.14c-2.71 2.89-8.42 3.39-11.55 1.02-1.8-1.36-1.6-1.47 2.69-1.5 2.61-.02 5.11-.61 5.74-1.37 1.46-1.77.45-2.66-3.04-2.66-1.56 0-2.83-.45-2.83-1s.84-1 1.88-1c1.03 0 2.44-.68 3.12-1.5 1.06-1.27.81-1.52-1.63-1.62-1.58-.06-3.4-.05-4.04.03-1.84.22-2.74-2.03-1.21-3.01 4.66-2.95 13.28.78 11.04 4.78-.76 1.35-.61 2.27.58 3.58 1.46 1.62 1.41 1.96-.75 4.25M203.65 71.17c2.06 2.28 5.12 2.35 7.52.18 3.73-3.38 1-9.35-4.29-9.35-4.52 0-6.48 5.57-3.23 9.17m78.39-44.1c1.17 2.19 5.86 2.63 7.76.73.66-.66 1.2-2.69 1.2-4.52 0-2.57-.56-3.58-2.5-4.46-5.47-2.5-9.48 2.61-6.46 8.25m-89.39.1c2.4 2.65 6 2.3 8.02-.79 1.53-2.34 1.56-2.89.24-5.25-1.76-3.13-5.94-3.95-8.28-1.61-2.09 2.08-2.08 5.33.02 7.65m120 0c2.4 2.65 6 2.3 8.02-.79 1.53-2.34 1.56-2.88.24-5.24-1.83-3.24-4.26-3.8-7.46-1.7-2.84 1.86-3.17 5.11-.8 7.73m-34 83c2.15 2.37 4.59 2.32 6.81-.13 3.96-4.37-1.04-9.86-6.01-6.6-2.85 1.87-3.12 4.16-.8 6.73m73.89-.13c3.44 3.81 7.89 1.53 7.28-3.73-.28-2.45-.8-2.85-4.04-3.12-3.28-.27-3.79 0-4.36 2.29-.45 1.8-.11 3.21 1.12 4.56m-30.87-36.71c1.16 1.17 4.04.72 5.32-.82 1.91-2.3.46-4.51-2.96-4.51-2.51 0-3.03.4-3.03 2.33 0 1.29.3 2.64.67 3M374 27c0 2.93.21 3.11 3.25 2.81 2.72-.26 3.25-.72 3.25-2.81s-.53-2.55-3.25-2.81c-3.04-.3-3.25-.12-3.25 2.81m-56 82.5c0 2.11.47 2.5 3 2.5 1.65 0 3.03-.34 3.08-.75.04-.41.22-1.54.41-2.5.26-1.39-.37-1.75-3.08-1.75-2.97 0-3.41.32-3.41 2.5m-26-37.44c0 1.77.53 2.02 3.74 1.75 2.62-.22 3.84-.84 4.08-2.06.27-1.43-.41-1.75-3.75-1.75-3.44 0-4.07.32-4.07 2.06m0-9.06c0 1.62.67 2 3.5 2s3.5-.38 3.5-2-.67-2-3.5-2-3.5.38-3.5 2m98.49 48.61c1.26.93 2.33 1.02 3.65.32 2.95-1.58 2.3-3.93-1.08-3.93-3.64 0-4.97 1.86-2.57 3.61M174 105.04c0 1.28 7.71 1.24 8.5-.04.99-1.6-4.3-3.18-6.57-1.96-1.06.56-1.93 1.46-1.93 2m64 0c0 .53 1.8.96 4 .96 4.4 0 5.68-2.33 1.84-3.33-2.34-.61-5.84.8-5.84 2.37M372 110c0 1.8.5 2.08 3.25 1.81 2.08-.2 3.25-.85 3.25-1.81s-1.17-1.61-3.25-1.81c-2.75-.27-3.25.01-3.25 1.81m78-4.9c0 1.4 7.25.69 7.73-.77.21-.64-.53-1.45-1.64-1.8-2.21-.7-6.09.93-6.09 2.57m-78-1.03c0 1.66.54 2 2.74 1.75 1.65-.19 2.87-1.01 3.07-2.07.26-1.36-.35-1.75-2.74-1.75-2.44 0-3.07.43-3.07 2.07"/><path fill="#91C0D9" d="M193 110c0-2.75.42-5 .94-5 .51 0 1.94 1.8 3.18 4s2.61 4 3.05 4c.22 0 .67-.38 1.21-1l-1.19 1.5-2.17-2.75c-2.89-3.68-4.02-3.46-4.02.75 0 2.49-.45 3.5-1.54 3.5a.53.53 0 0 1-.3-.09c.48-.43.84-2.43.84-4.91m-1.74 2.85c-.45-2.41-.35-6.39.16-9.44-.09 1.02-.15 2.29-.21 3.85-.09 2.38-.07 4.27.05 5.59m11.11-2.08c.29-.39.58-.82.87-1.26.49-.75 1-1.45 1.45-2.03-.41.75-1.2 1.89-2.1 3.02Zm3.77-4.73a.3.3 0 0 1 .11-.03c.41 0 .75 2.05.75 4.57 0-2.31-.38-4.23-.86-4.54"/><path fill="#F9FDFD" d="M0 129.8v-16.19l3.36 3.67c1.85 2.01 4.57 4.12 6.06 4.69S20.17 123 30 123h17.88l.31 11.5.31 11.5H0zm53.92 13.31c3.53-4.95 12.79-12.8 17.79-15.07 2.64-1.2 5.69-2.68 6.79-3.3 1.1-.61 9.05-1.37 17.68-1.68 17.48-.63 19.63-1.38 23.07-8.13 1.6-3.14 1.75-8.08 1.75-59.18V0h341v103.15l-2.63-2.08c-3.57-2.8-7.88-2.65-10.92.38-6.22 6.23.87 15.93 9.44 12.92 3.54-1.24 2.4-2.94-1.72-2.57-3.22.3-6.17-1.1-6.17-2.92 0-.49 2.7-.88 6-.88h6v38H51.86zm110.45-30.18c3.01-2.37 3.37-5.05.99-7.42-1.22-1.22-1.34-1.93-.5-2.77 1.82-1.82 1.32-5.57-.89-6.76-2.46-1.31-12.58-.88-12.19.52.15.55 1.72 1.04 3.5 1.09 6.54.18 6.87.31 6.54 2.66-.26 1.81-1.06 2.31-4.07 2.56-2.45.2-3.75.81-3.75 1.75 0 .99 1.16 1.44 3.75 1.46 2.06 0 4.41.43 5.21.93 1.24.79 1.17 1.25-.5 3.1-1.7 1.88-2.65 2.08-7.18 1.55-4.31-.5-5.12-.36-4.67.84 1.19 3.08 10.06 3.4 13.76.49m18.7 1.03c3.31-1.77 2.2-3.03-2.06-2.34-2.6.41-4.53.2-5.5-.62-2.72-2.25-1.6-3 4.49-3 5.56 0 6-.16 5.97-2.25-.05-3.4-2.36-5.78-6.23-6.4-6.19-1.01-10.58 3.56-9.25 9.61 1.02 4.66 8.02 7.44 12.58 5M194 111.5c0-4.21 1.13-4.43 4.02-.75l2.17 2.75 2.4-3c1.32-1.65 2.4-3.34 2.41-3.75 0-.41.45-.75 1-.75s1 2.06 1 4.58c0 3.22.37 4.46 1.25 4.17.81-.26 1.35-2.95 1.54-7.58.28-6.64.15-7.17-1.73-7.17-1.29 0-2.97 1.47-4.56 4-1.39 2.2-2.88 4-3.31 4-.44 0-1.79-2.06-3.01-4.57-1.56-3.2-2.74-4.47-3.95-4.24-2.45.47-3.19 15.81-.77 15.81 1.09 0 1.54-1.01 1.54-3.5m24.55.03c.8-1.91 1.45-4.61 1.45-6 0-2.14.46-2.53 3-2.53h3v6c0 4.44.36 6 1.38 6 1.8 0 2.59-3.12 2.61-10.25L230 99h-6.39c-7.23 0-7.61.38-7.61 7.61 0 3.04-.48 4.64-1.5 5.03-2.23.85-1.82 3.36.55 3.36 1.4 0 2.52-1.11 3.5-3.47M246.5 114c3.68-1.4 2.12-3.21-2.09-2.42-3.32.63-6.41-.68-6.41-2.7 0-.49 2.7-.88 6-.88 5.38 0 6-.21 6-2.05 0-3.07-4.41-6.95-7.9-6.95-4.35 0-8.43 3.87-8.43 8 0 6.04 6.3 9.48 12.83 7m11.3-5.33.3-5.67h7.9v6.07c0 5.25.24 6.03 1.75 5.74 1.46-.28 1.8-1.64 2.04-8.11l.3-7.79-7.8.3-7.79.29-.3 6.39c-.34 7.15.2 9.47 2.05 8.86.75-.24 1.37-2.66 1.55-6.08m30.12 3.74c2.1-1.76 3.08-3.49 3.08-5.41 0-3.44-4.95-8-8.67-8-1.39 0-3.83.93-5.43 2.07-2.34 1.67-2.9 2.81-2.9 5.93 0 7.34 7.96 10.43 13.92 5.41m8.96 1.24c.61-.74 1.4-3.44 1.75-6 .59-4.28.87-4.65 3.46-4.65 2.72 0 2.82.18 3.11 5.75.22 4.31.68 5.75 1.8 5.75 1.18 0 1.56-1.66 1.79-7.75l.29-7.75H296v5.49c0 4.41-.39 5.74-2 6.74-1.1.69-2 1.82-2 2.51 0 1.68 3.46 1.61 4.88-.09m29.65-1.09c1.92-1.92 2.26-2.94 1.6-4.75-.66-1.8-1.81-2.42-5.24-2.81-3.92-.45-4.42-.8-4.71-3.31-.23-2-.81-2.72-2-2.49-1.37.26-1.73 1.76-1.97 8.06l-.29 7.74H319c4.07 0 5.58-.49 7.53-2.44m16.46-.05c2.16-2.29 2.21-2.63.75-4.25-1.19-1.31-1.34-2.23-.58-3.58 2.24-4-6.38-7.73-11.04-4.78-1.53.98-.63 3.23 1.21 3.01.64-.08 2.46-.09 4.04-.03 2.44.1 2.69.35 1.63 1.62-.68.82-2.09 1.5-3.12 1.5-1.04 0-1.88.45-1.88 1s1.27 1 2.83 1c3.49 0 4.5.89 3.04 2.66-.63.76-3.13 1.35-5.74 1.37-4.29.03-4.49.14-2.69 1.5 3.13 2.37 8.84 1.87 11.55-1.02m18.38.42c3.72-2.93 3.72-8.93 0-11.86-8.51-6.69-19.55 4.4-11.29 11.34 3.71 3.13 7.73 3.31 11.29.52m19.73.19c2-1.62 2.17-2.23 1.22-4.32-.61-1.34-.89-3.6-.62-5.03.66-3.42-2.23-4.98-8.48-4.57l-4.72.3-.29 7.75-.29 7.75h5.43c3.83 0 6.11-.56 7.75-1.88m18.71-3.62c.48-7.51-.29-9.31-4.31-10.07-4.43-.83-8.5.17-8.5 2.09 0 1.09 1.19 1.48 4.5 1.48 3.33 0 4.5.39 4.5 1.5 0 1.06-1.07 1.5-3.67 1.5-6.26 0-8.78 4.3-4.53 7.73.89.71 3.64 1.1 6.61.93l5.09-.3zm9.01 2.24c.28-2.47.7-2.74 4.25-2.74 3.72 0 3.93.16 3.93 3.07 0 2.36.4 3 1.7 2.75 1.74-.34 1.82-.93 1.47-11.07-.2-5.67-2.84-6.85-3.36-1.5-.28 2.96-.64 3.28-3.99 3.56-3.51.29-3.7.15-4-3-.21-2.18-.91-3.41-2.07-3.63-1.55-.29-1.75.6-1.75 7.82s.2 8.11 1.75 7.81c1.06-.2 1.88-1.42 2.07-3.07m24.53-1.79 4.54-5.04.3 4.79c.22 3.46.73 4.8 1.81 4.8 1.18 0 1.56-1.66 1.79-7.75.36-9.52-.87-10.03-7.34-3l-4.37 4.75-.04-4.75c-.03-4.07-.33-4.75-2.04-4.75-1.83 0-2 .67-2 8 0 9.74.92 10.11 7.35 2.95M160 72.05l.5-7.45 3.92 5.7c2.29 3.33 4.65 5.7 5.69 5.7 1.06 0 3.32-2.33 5.59-5.74l3.8-5.75.5 7.5.5 7.49h8l.28-15.25.27-15.25h-3.99c-3.89 0-4.11.19-9.12 8-2.82 4.4-5.48 8-5.9 8-.43 0-3.09-3.6-5.92-8-4.81-7.49-5.37-8-8.63-8H152v31.12l3.75-.31 3.75-.31zm54.98 5.46c4.85-3.06 6.03-5.16 6-10.69-.03-4.87-1.94-7.84-6.48-10.09-6.35-3.13-16.96-.41-19.41 4.98-5.47 12 8.43 23.04 19.89 15.8m30.05.24c4.34-2.94 4.72-4.45 1.47-5.93-2.05-.94-3.08-.94-4.56-.01-2.65 1.65-6.45 1.49-7.97-.34-1.63-1.97-1.49-7.52.22-8.61 2.11-1.33 6.46-.99 7.8.63 1.09 1.31 1.58 1.29 4.12-.22 3.83-2.25 3.64-3.5-.86-5.91-9.29-4.98-21.3.41-21.21 9.52.04 4.88 1.92 7.94 6.57 10.76 4.94 2.99 10.11 3.03 14.42.11m16.78-2.5c.4-5.58 2.23-5.5 6.19.25 2.86 4.15 3.43 4.5 7.38 4.5 2.36 0 4.55-.26 4.87-.59.33-.32-1.17-2.91-3.33-5.75-2.15-2.84-3.91-5.88-3.92-6.76 0-.88 1.35-3.46 3-5.74s3-4.37 3-4.65-1.91-.5-4.25-.49c-3.91.02-4.49.38-7.25 4.5-1.65 2.46-3.45 4.33-4 4.15s-1.14-2.2-1.31-4.5l-.3-4.17h-8.68l-.12 8.66c-.06 4.77.17 10.19.52 12.06.6 3.19.85 3.37 4.26 3.08 3.5-.29 3.64-.45 3.94-4.55m40.72 3.3c4.62-1.93 6.43-5.8 4.39-9.4-1.1-1.93-1.25-3.36-.56-5.28 2.11-5.89-1.39-7.87-13.93-7.87H284v24h7.53c4.32 0 9.02-.62 11-1.45m30.15-1.15c2.14-1.59 2.89-3.07 3.12-6.13.36-4.78-1.61-7.27-5.75-7.27-1.54 0-4.21-.28-5.93-.62-2.75-.56-3.12-1.03-3.12-4 0-3.34-.06-3.38-4.5-3.38H312v11.33c0 6.24.34 11.68.75 12.09.41.42 4.43.61 8.93.42 6.38-.27 8.79-.8 11-2.44m14.1-9.53.28-11.63-3.28-.5c-1.8-.28-3.62-.3-4.03-.06-.96.56-.99 22.75-.04 23.7.4.39 2.08.58 3.75.42l3.04-.3zm-65.97-29.13c.28-4.48.42-4.69 2.39-3.63 2.79 1.49 9.45.51 12.02-1.78 6.3-5.6 5.8-16.59-.9-20.17-2.71-1.44-9.79-1.51-12.39-.12-1.33.71-1.93.71-1.93 0 0-.57-1.8-1.04-4-1.04h-4v15.33c0 8.44.32 15.66.71 16.05.4.39 2.31.58 4.25.42 3.47-.29 3.55-.4 3.85-5.06M159.8 29.75c.27-5.25.5-5.75 2.61-5.75 1.74 0 3.21 1.47 6.01 6 3.63 5.88 3.79 6 8.14 6 2.57 0 4.44-.46 4.44-1.1 0-.61-1.35-3.11-3-5.56-6.58-9.74-6.54-9.37-1.49-16.91 2.47-3.68 4.49-6.86 4.49-7.06S179 5 176.56 5c-4.33 0-4.52.14-8.25 6.01-2.82 4.44-4.33 5.94-5.81 5.75-1.7-.22-2.05-1.13-2.3-6.01L159.9 5H152v31.12l3.75-.31 3.75-.31zm44.29 3.97c4.53-3.06 6.08-6.29 5.56-11.59-.68-6.85-3.97-9.48-12.39-9.9-8.31-.41-12.61 1.76-14.09 7.12-1.71 6.2.29 11.17 5.83 14.53 4.69 2.83 10.74 2.77 15.09-.16m18.72-2.52.31-4.31 4.19.31c4.07.29 4.2.41 4.69 4.3.47 3.8.69 4.02 4.25 4.31l3.75.31V12h-3.94c-3.93 0-3.95.02-4.25 4.25-.31 4.24-.32 4.25-4.31 4.25s-4-.01-4.31-4.25l-.3-4.25H214v11.33c0 6.24.32 11.66.71 12.05.4.39 2.31.58 4.25.42 3.4-.29 3.55-.47 3.85-4.6m37.98-3.89.29-8.19 3.71-.31c3.38-.28 3.74-.6 4.02-3.56l.32-3.25h-25.26l.32 3.25c.28 2.97.64 3.28 4.06 3.56l3.75.31v7.77c0 4.28.32 8.1.71 8.49.4.39 2.31.58 4.25.42l3.54-.3zm65.87 4.36c2.78-3.03 3.34-4.42 3.34-8.26 0-3.91-.52-5.13-3.4-8.01-3.12-3.12-3.9-3.4-9.45-3.4-3.33 0-7.24.54-8.68 1.19-6.77 3.09-7.44 15.18-1.09 19.81 3.59 2.62 5 2.98 10.53 2.64 4.76-.29 5.83-.78 8.75-3.97m13.74 2.78c1.61-1.6 3.26-6.8 3.79-11.95.27-2.58.77-3.04 3.56-3.31l3.25-.32v17.25l3.75-.31 3.75-.31.28-11.75.28-11.75h-21.81l-.63 3.12c-.34 1.72-.62 5.09-.62 7.5 0 3.28-.5 4.67-2 5.61-1.34.84-2 2.33-2 4.51 0 3.05.23 3.26 3.43 3.26 1.88 0 4.12-.7 4.97-1.55m43.48.44c3.29-1.15 6.12-5.23 6.12-8.84s-3.42-5.89-9.94-6.62l-6.06-.69v-3.37c0-3.33-.06-3.37-4.5-3.37H365v11.33c0 6.24.3 11.64.67 12 1.09 1.09 14.77.76 18.21-.44M52.79 129.35l-.29-8.85-20-.5c-17.38-.43-20.41-.75-23.16-2.42-1.75-1.05-3.66-2.98-4.25-4.29C4.35 111.67 4 93.76 4 57.45V4h113v54.37c0 53.25-.04 54.41-2.05 56.96-2.83 3.61-7.58 4.66-21.11 4.66-17.65.01-23.68 2.33-36.05 13.83l-4.71 4.38zM34.8 105.8c.79-.79 1.2-5.04 1.2-12.5V82h13.94l.28 12.25c.23 10.1.54 12.25 1.78 12.25 1.25 0 1.55-2.36 1.78-14.18.27-14.08.26-14.18-2-14.5-2.15-.3-2.3-.83-2.57-9.07L48.92 60H70v4c0 3.26-.35 4-1.89 4-1.04 0-2.17.71-2.5 1.58-.34.87-.61 9.14-.61 18.38 0 13.65.28 17.03 1.49 18.03 2.2 1.83 2.4.54 2.72-17.49l.29-16h16l.5 17 .5 17 4.83.31c5.14.33 8.92-1.4 6.47-2.96-.72-.45-2.75-.83-4.53-.83l-3.22-.02-.28-17.25-.27-17.25-7.25-.29-7.25-.3v-4.83c0-2.91-.55-5.3-1.39-5.99-.93-.77-5.75-1.06-14.75-.87l-13.36.28L45 67l-.5 10.5-6.22.3-6.22.29-.28 12.21-.28 12.2-3 .29c-5.05.5-5.91 1.02-4.49 2.72 1.5 1.8 9.07 2.01 10.79.29M92 53.17c0-1.24-3.82-4.47-10.29-8.71-3.34-2.19-5.59-4.33-5.31-5.06 4.08-10.64-1.47-21.78-12.15-24.34C51.85 12.08 41 20.3 41 32.67c0 6.12 3.15 11.05 9.38 14.71 6.88 4.03 16.45 3.15 20.64-1.9 1.83-2.21 2.85-1.87 10.48 3.49 6.51 4.57 10.5 6.17 10.5 4.2m358 51.93c0-1.64 3.88-3.27 6.09-2.57 1.11.35 1.85 1.16 1.64 1.8-.48 1.46-7.73 2.17-7.73.77m-276-.06c0-.54.87-1.44 1.93-2 2.27-1.22 7.56.36 6.57 1.96-.79 1.28-8.5 1.32-8.5.04m64 0c0-1.57 3.5-2.98 5.84-2.37 3.84 1 2.56 3.33-1.84 3.33-2.2 0-4-.43-4-.96m40.65 5.13c-2.32-2.57-2.05-4.86.8-6.73 4.97-3.26 9.97 2.23 6.01 6.6-2.22 2.45-4.66 2.5-6.81.13m39.35-.67c0-2.18.44-2.5 3.41-2.5 2.71 0 3.34.36 3.08 1.75-.19.96-.37 2.09-.41 2.5-.05.41-1.43.75-3.08.75-2.53 0-3-.39-3-2.5m34.54.54c-1.23-1.35-1.57-2.76-1.12-4.56.57-2.29 1.08-2.56 4.36-2.29 3.24.27 3.76.67 4.04 3.12.61 5.26-3.84 7.54-7.28 3.73M372 110c0-1.8.5-2.08 3.25-1.81 2.08.2 3.25.85 3.25 1.81s-1.17 1.61-3.25 1.81c-2.75.27-3.25-.01-3.25-1.81m0-5.93c0-1.64.63-2.07 3.07-2.07 2.39 0 3 .39 2.74 1.75-.2 1.06-1.42 1.88-3.07 2.07-2.2.25-2.74-.09-2.74-1.75m18.49 7.54c-2.4-1.75-1.07-3.61 2.57-3.61 3.38 0 4.03 2.35 1.08 3.93-1.32.7-2.39.61-3.65-.32M203.65 71.17c-3.25-3.6-1.29-9.17 3.23-9.17 5.29 0 8.02 5.97 4.29 9.35-2.4 2.17-5.46 2.1-7.52-.18m88.35.89c0-1.74.63-2.06 4.07-2.06 3.34 0 4.02.32 3.75 1.75-.24 1.22-1.46 1.84-4.08 2.06-3.21.27-3.74.02-3.74-1.75m0-9.06c0-1.62.67-2 3.5-2s3.5.38 3.5 2-.67 2-3.5 2-3.5-.38-3.5-2m29.67 10.33c-.37-.36-.67-1.71-.67-3 0-1.93.52-2.33 3.03-2.33 3.42 0 4.87 2.21 2.96 4.51-1.28 1.54-4.16 1.99-5.32.82m-39.63-46.26c-3.02-5.64.99-10.75 6.46-8.25 1.94.88 2.5 1.89 2.5 4.46 0 1.83-.54 3.86-1.2 4.52-1.9 1.9-6.59 1.46-7.76-.73m-89.39.1c-2.1-2.32-2.11-5.57-.02-7.65 2.34-2.34 6.52-1.52 8.28 1.61 1.32 2.36 1.29 2.91-.24 5.25-2.02 3.09-5.62 3.44-8.02.79m120 0c-2.37-2.62-2.04-5.87.8-7.73 3.2-2.1 5.63-1.54 7.46 1.7 1.32 2.36 1.29 2.9-.24 5.24-2.02 3.09-5.62 3.44-8.02.79M374 27c0-2.93.21-3.11 3.25-2.81 2.72.26 3.25.72 3.25 2.81s-.53 2.55-3.25 2.81c-3.04.3-3.25.12-3.25-2.81M53.45 45.04c-1.13-.46-3.5-2.47-5.25-4.47-2.4-2.73-3.2-4.59-3.2-7.46C45 23.39 49.66 19 59.97 19c5.72 0 6.5.27 9.54 3.31 6.57 6.57 5.48 16.09-2.46 21.44-3.47 2.33-9.6 2.91-13.6 1.29"/></svg>